<?xml version="1.0" encoding="utf-8"?>
<!-- Generator: Adobe Illustrator 25.2.1, SVG Export Plug-In . SVG Version: 6.00 Build 0)  -->
<svg version="1.1" id="Layer_1" xmlns="http://www.w3.org/2000/svg" xmlns:xlink="http://www.w3.org/1999/xlink" x="0px" y="0px"
	 viewBox="0 0 737.3 279" style="enable-background:new 0 0 737.3 279;" xml:space="preserve">
<style type="text/css">
	.st0{fill:#29BFCA;stroke:#FFFFFF;stroke-miterlimit:10;}
	.st1{fill:#231F20;stroke:#29BFCA;stroke-width:3;stroke-miterlimit:10;}
	.st2{fill:#29BFCA;}
</style>
<g>
	<path class="st0" d="M117.9,152h108.9c4.3,0,7.8,3.5,7.8,7.8v64.8c0,0,0,14.3-12.9,14.3c-9.1,0-103.6,0-103.6,0h46.3
		c0,0-94.5,0-103.6,0c-12.9,0-12.9-14.3-12.9-14.3v-64.8c0-4.3,3.5-7.8,7.8-7.8h108.9"/>
	<path class="st0" d="M181.8,162.1"/>
	<g>
		<polygon class="st0" points="67.4,123.8 99.4,146.3 128,146.3 95.8,123.6 		"/>
		<polygon class="st0" points="110.9,123.8 142.9,146.3 171.6,146.3 139.3,123.6 		"/>
		<polygon class="st0" points="158.5,123.8 190.6,146.4 219.1,146.4 186.9,123.7 		"/>
		<path class="st0" d="M47.9,123.8L48,140c0,3.5,4,6.3,9,6.3h24.7"/>
		<path class="st0" d="M234.5,146.3l-0.1-16.3c0-3.5-4.1-6.3-9-6.3h-24.7"/>
		<polygon class="st0" points="190.2,26.3 172.1,61.1 146.7,74.2 164.9,39.2 		"/>
		<polygon class="st0" points="151.6,46.3 133.5,81 108.1,94.2 126.3,59.2 		"/>
		<polygon class="st0" points="109.3,68.2 91.2,102.9 65.8,116.1 84,81.1 		"/>
		<path class="st0" d="M207.6,17.4l7.4,14.5c1.6,3.1-0.7,7.5-5.1,9.8l-21.9,11.3"/>
		<path class="st0" d="M48.5,124.5L41.1,110c-1.6-3.1,0.7-7.5,5.1-9.8l21.9-11.3"/>
	</g>
</g>
<line class="st1" x1="269.5" y1="73.1" x2="269.5" y2="194.4"/>
<g>
	<path class="st2" d="M301,101.1h38.8v11.2h-24.4v17.1h18.8v11.2h-18.8v25.8H301V101.1z"/>
	<path class="st2" d="M344.4,101.1h14.4v65.3h-14.4V101.1z"/>
	<path class="st2" d="M371.1,101.1h14.4v53.1h21v12.2h-35.4V101.1z"/>
	<path class="st2" d="M412.8,101.1h21l9.2,40.3l10.4-40.3h20.4v65.3h-13.4v-54.7l-13.4,54.7h-10.4l-12.2-54.7v54.7h-11.7
		L412.8,101.1L412.8,101.1z"/>
	<path class="st2" d="M518,142.6l13.2,0.8c-0.5,7.1-2.7,12.8-6.8,17.3c-4,4.4-9.3,6.7-15.9,6.7c-8,0-14.2-3-18.4-8.9
		c-4.2-6-6.3-14.2-6.3-24.6c0-10.6,2.1-18.8,6.3-24.8c4.2-6,10.4-8.9,18.6-8.9c13.6,0,21,8.4,22.2,25.3l-13.1,1
		c-0.3-9.7-3.4-14.5-9.1-14.5c-3,0-5.4,1.6-7.1,4.7c-1.8,3.1-2.7,9.2-2.7,18.2c0,8,0.8,13.6,2.4,16.6c1.6,3,4.1,4.5,7.3,4.5
		C514,155.7,517.1,151.3,518,142.6z"/>
	<path class="st2" d="M552,101.1h14.5l18.7,65.3h-14.7l-3.3-13.5h-18.4l-3.2,13.5h-13.2L552,101.1z M564.4,141.7l-6.6-26.8
		l-6.3,26.8H564.4z"/>
	<path class="st2" d="M581.9,101.1h15l10,49.8l10.4-49.8h12.3l-16,65.6l-16.1-0.3L581.9,101.1z"/>
	<path class="st2" d="M634.5,101.1h39.7v11.2h-25.3v15.2h19.7v11.2h-19.7v16.1h25.3v11.7h-39.7V101.1z"/>
</g>
</svg>
